<svg viewBox="0 0 720 430" xmlns="http://www.w3.org/2000/svg" role="img" aria-label="WH-minus potential energy curve, CASCI total energy versus bond length, single minimum at 1.73 angstrom">
<style>.ax{stroke:#141413;stroke-width:1.3}.gr{stroke:#e6dfd8;stroke-width:1}.tk{font-family:JetBrains Mono,monospace;font-size:11px;fill:#6c6a64}.lb{font-family:Inter,sans-serif;font-size:12px;fill:#3d3d3a}</style>
<line class="gr" x1="72" y1="59.3" x2="692" y2="59.3"/>
<text class="tk" x="64" y="63.3" text-anchor="end">-67.34</text>
<line class="gr" x1="72" y1="110.2" x2="692" y2="110.2"/>
<text class="tk" x="64" y="114.2" text-anchor="end">-67.36</text>
<line class="gr" x1="72" y1="161.2" x2="692" y2="161.2"/>
<text class="tk" x="64" y="165.2" text-anchor="end">-67.38</text>
<line class="gr" x1="72" y1="212.1" x2="692" y2="212.1"/>
<text class="tk" x="64" y="216.1" text-anchor="end">-67.40</text>
<line class="gr" x1="72" y1="263.0" x2="692" y2="263.0"/>
<text class="tk" x="64" y="267.0" text-anchor="end">-67.42</text>
<line class="gr" x1="72" y1="314.0" x2="692" y2="314.0"/>
<text class="tk" x="64" y="318.0" text-anchor="end">-67.44</text>
<line class="gr" x1="72" y1="364.9" x2="692" y2="364.9"/>
<text class="tk" x="64" y="368.9" text-anchor="end">-67.46</text>
<text class="tk" x="112.0" y="390.0" text-anchor="middle">1.6</text>
<text class="tk" x="192.0" y="390.0" text-anchor="middle">1.8</text>
<text class="tk" x="272.0" y="390.0" text-anchor="middle">2.0</text>
<text class="tk" x="352.0" y="390.0" text-anchor="middle">2.2</text>
<text class="tk" x="432.0" y="390.0" text-anchor="middle">2.4</text>
<text class="tk" x="512.0" y="390.0" text-anchor="middle">2.6</text>
<text class="tk" x="592.0" y="390.0" text-anchor="middle">2.8</text>
<text class="tk" x="672.0" y="390.0" text-anchor="middle">3.0</text>
<line x1="72" y1="60.3" x2="692" y2="60.3" stroke="#8e8b82" stroke-width="1.2" stroke-dasharray="6 4"/>
<text class="tk" x="688" y="52.3" text-anchor="end" fill="#8e8b82">dissociation proxy · −67.3404 Ha</text>
<line x1="164.0" y1="44" x2="164.0" y2="370" stroke="#45a08e" stroke-width="1.2" stroke-dasharray="2 3"/>
<text class="lb" x="170.0" y="60" fill="#2f6b5e">r_eq = 1.73 Å</text>
<line class="ax" x1="72" y1="44" x2="72" y2="370"/>
<line class="ax" x1="72" y1="370" x2="692" y2="370"/>
<polyline class="draw" fill="none" stroke="#cc785c" stroke-width="2.6" points="92.0,331.0 132.0,348.4 164.0,350.9 212.0,342.5 272.0,313.5 352.0,261.2 472.0,176.9 572.0,114.0 672.0,60.3"/>
<circle cx="92.0" cy="331.0" r="4.5" fill="#cc785c" stroke="#faf9f5" stroke-width="1.2"/>
<circle cx="132.0" cy="348.4" r="4.5" fill="#cc785c" stroke="#faf9f5" stroke-width="1.2"/>
<circle cx="164.0" cy="350.9" r="4.5" fill="#cc785c" stroke="#faf9f5" stroke-width="1.2"/>
<circle cx="212.0" cy="342.5" r="4.5" fill="#cc785c" stroke="#faf9f5" stroke-width="1.2"/>
<circle cx="272.0" cy="313.5" r="4.5" fill="#cc785c" stroke="#faf9f5" stroke-width="1.2"/>
<circle cx="352.0" cy="261.2" r="4.5" fill="#cc785c" stroke="#faf9f5" stroke-width="1.2"/>
<circle cx="472.0" cy="176.9" r="4.5" fill="#cc785c" stroke="#faf9f5" stroke-width="1.2"/>
<circle cx="572.0" cy="114.0" r="4.5" fill="#cc785c" stroke="#faf9f5" stroke-width="1.2"/>
<circle cx="672.0" cy="60.3" r="4.5" fill="#cc785c" stroke="#faf9f5" stroke-width="1.2"/>
<text class="lb" x="382.0" y="414" text-anchor="middle">W–H bond length (Å)</text>
<text class="lb" x="20" y="207.0" text-anchor="middle" transform="rotate(-90 20 207.0)">total energy (Hartree)</text>
</svg>